<svg width="30" height="30" viewBox="0 0 30 30" fill="none" xmlns="http://www.w3.org/2000/svg">
<path d="M13.2113 13C12.5338 13 12 13.5938 12 14.3187C12 15.0412 12.5463 15.6375 13.2113 15.6375C13.8875 15.6375 14.4213 15.0412 14.4213 14.3187C14.435 13.5925 13.8875 13 13.2113 13ZM17.5463 13C16.8688 13 16.335 13.5938 16.335 14.3187C16.335 15.0412 16.8813 15.6375 17.5463 15.6375C18.2225 15.6375 18.7563 15.0412 18.7563 14.3187C18.755 13.5925 18.2225 13 17.5463 13Z" fill="white"/>
<path d="M23.3475 3H7.43376C7.11333 3.00082 6.79621 3.06474 6.50049 3.18812C6.20476 3.3115 5.93624 3.49192 5.71025 3.71908C5.48425 3.94623 5.30521 4.21568 5.18335 4.51203C5.06149 4.80837 4.99919 5.12582 5.00001 5.44625V21.5012C5.00001 22.855 6.09251 23.9475 7.43376 23.9475H20.9L20.2688 21.7487L21.79 23.1625L23.2263 24.4925L25.7813 26.75V5.44625C25.7821 5.12582 25.7198 4.80837 25.5979 4.51203C25.4761 4.21568 25.297 3.94623 25.071 3.71908C24.845 3.49192 24.5765 3.3115 24.2808 3.18812C23.9851 3.06474 23.6679 3.00082 23.3475 3V3ZM18.7625 18.5087C18.7625 18.5087 18.335 17.9987 17.98 17.545C19.535 17.105 20.1288 16.1325 20.1288 16.1325C19.6413 16.4525 19.1788 16.68 18.7625 16.835C17.2471 17.4692 15.5783 17.6423 13.965 17.3325C13.3689 17.2154 12.7848 17.0439 12.22 16.82C11.9222 16.7069 11.6327 16.5728 11.3538 16.4187C11.3175 16.3925 11.2825 16.3825 11.2475 16.3587C11.2288 16.3498 11.2122 16.3371 11.1988 16.3212C10.985 16.2037 10.8663 16.1212 10.8663 16.1212C10.8663 16.1212 11.4363 17.0712 12.945 17.5225C12.5888 17.9725 12.1488 18.5087 12.1488 18.5087C9.52501 18.425 8.52876 16.7037 8.52876 16.7037C8.52876 12.88 10.2388 9.78125 10.2388 9.78125C11.9488 8.4975 13.575 8.53375 13.575 8.53375L13.6938 8.67625C11.5563 9.295 10.57 10.2325 10.57 10.2325C10.57 10.2325 10.8325 10.09 11.2713 9.88875C12.5413 9.33125 13.55 9.17625 13.9663 9.14C14.0375 9.12875 14.0975 9.11625 14.1688 9.11625C16.2278 8.83877 18.3215 9.23008 20.1413 10.2325C20.1413 10.2325 19.2025 9.3425 17.1838 8.725L17.35 8.535C17.35 8.535 18.9775 8.49875 20.6863 9.7825C20.6863 9.7825 22.3963 12.8812 22.3963 16.705C22.3963 16.7037 21.3875 18.425 18.7625 18.5087V18.5087Z" fill="white"/>
</svg>
