<svg width="58" height="54" viewBox="0 0 58 54" fill="none" xmlns="http://www.w3.org/2000/svg">
<path fill-rule="evenodd" clip-rule="evenodd" d="M0.184143 2.76986C0.574768 2.90007 0.965393 2.90007 1.48623 3.03028C1.74664 3.03028 2.00706 3.2907 2.00706 3.55111C2.13727 4.07195 2.39768 4.59278 2.52789 5.24382C2.6581 5.50424 2.52789 5.76466 2.26748 5.63445C1.87685 5.50424 1.48622 5.50424 1.0956 5.37403C0.835183 5.37403 0.704975 5.11361 0.574767 4.8532C0.444559 4.33236 0.184142 3.68132 0.053934 3.16049C-0.0762744 2.90007 0.0539345 2.63965 0.184143 2.76986Z" fill="black"/>
<path fill-rule="evenodd" clip-rule="evenodd" d="M1.61643 0.0354873C2.00706 0.165696 2.52789 0.295904 2.91852 0.426112C3.17893 0.426112 3.43935 0.816737 3.43935 1.07715C3.56956 1.46778 3.82997 1.98861 3.96018 2.50945C4.09039 2.76986 3.96018 2.90007 3.69977 2.90007C3.30914 2.76986 2.91851 2.63965 2.39768 2.63965C2.13726 2.63965 1.87685 2.37924 1.87685 1.98861C1.74664 1.46778 1.48622 0.946946 1.35601 0.295904C1.2258 0.165696 1.35601 -0.094721 1.61643 0.0354873Z" fill="black"/>
<path fill-rule="evenodd" clip-rule="evenodd" d="M4.09039 0.686523C4.48102 0.816732 5.00185 0.94694 5.39248 1.07715C5.65289 1.20736 5.91331 1.46777 5.91331 1.72819C6.17373 2.24902 6.30393 2.76986 6.56435 3.29069C6.69456 3.55111 6.56435 3.68131 6.30393 3.68131C5.91331 3.55111 5.39248 3.4209 5.00185 3.29069C4.74143 3.29069 4.48102 2.90006 4.48102 2.63965C4.35081 2.11881 4.09039 1.59798 3.96018 1.07715C3.82998 0.816732 3.96018 0.686523 4.09039 0.686523Z" fill="black"/>
<path fill-rule="evenodd" clip-rule="evenodd" d="M11.9029 3.55115C12.2935 3.68136 12.8143 3.94177 13.205 4.20219C13.4654 4.3324 13.7258 4.59281 13.7258 4.85323C13.856 5.37406 13.9862 5.76469 14.2466 6.28552C14.3768 6.54594 14.2466 6.67615 13.9862 6.54594C13.5956 6.28552 13.0747 6.15531 12.6841 6.02511C12.4237 5.8949 12.1633 5.63448 12.1633 5.37406C12.0331 4.85323 11.9029 4.46261 11.6425 3.94177C11.6425 3.55115 11.7727 3.55115 11.9029 3.55115Z" fill="black"/>
<path fill-rule="evenodd" clip-rule="evenodd" d="M2.65814 3.29074C3.04877 3.42095 3.43939 3.42095 3.96022 3.55115C4.22064 3.55115 4.48106 3.81157 4.48106 4.2022C4.61126 4.72303 4.87168 5.24386 5.00189 5.7647C5.1321 6.02511 5.00189 6.15532 4.74147 6.15532C4.35085 6.02511 3.96023 5.8949 3.5696 5.8949C3.30918 5.8949 3.17897 5.63449 3.04877 5.37407C2.91856 4.85324 2.65814 4.3324 2.52793 3.68136C2.39772 3.42095 2.52793 3.16053 2.65814 3.29074Z" fill="black"/>
<path fill-rule="evenodd" clip-rule="evenodd" d="M5.13206 3.94174C5.52268 4.07195 6.04352 4.20216 6.43414 4.33236C6.69456 4.33236 6.95497 4.59278 6.95497 4.8532C7.08518 5.37403 7.3456 5.89486 7.47581 6.4157C7.60602 6.67611 7.47581 6.80632 7.21539 6.80632C6.82477 6.67611 6.30393 6.54591 5.91331 6.54591C5.65289 6.54591 5.39248 6.28549 5.39248 6.02507C5.26227 5.50424 5.00185 4.98341 4.87164 4.46257C4.87164 3.94174 5.00185 3.81153 5.13206 3.94174Z" fill="black"/>
<path fill-rule="evenodd" clip-rule="evenodd" d="M7.73624 4.59277C8.12686 4.72298 8.6477 4.85319 9.03832 4.9834C9.29874 5.11361 9.55915 5.37402 9.55915 5.63444C9.68936 6.15527 9.94978 6.67611 10.08 7.06673C10.2102 7.32715 10.08 7.45736 9.81957 7.32715C9.42895 7.19694 8.90811 7.06673 8.51749 6.93652C8.25707 6.93652 7.99666 6.67611 7.99666 6.41569C7.86645 5.89486 7.60603 5.37402 7.47583 4.85319C7.34562 4.72298 7.47582 4.59277 7.73624 4.59277Z" fill="black"/>
<path fill-rule="evenodd" clip-rule="evenodd" d="M10.3404 5.50421C10.7311 5.63441 11.2519 5.76462 11.6425 6.02504C11.9029 6.15525 12.1633 6.41566 12.1633 6.67608C12.2936 7.19691 12.4238 7.58754 12.6842 8.10837C12.8144 8.36879 12.6842 8.499 12.4238 8.36879C12.0331 8.23858 11.5123 8.10837 11.1217 7.84796C10.8613 7.71775 10.6008 7.45733 10.6008 7.19691C10.4706 6.67608 10.2102 6.15525 10.08 5.76462C9.9498 5.50421 10.08 5.374 10.3404 5.50421Z" fill="black"/>
<path fill-rule="evenodd" clip-rule="evenodd" d="M12.9446 6.54595C13.3352 6.67616 13.856 6.93658 14.2466 7.06679C14.5071 7.197 14.7675 7.45741 14.7675 7.71783C14.8977 8.23866 15.0279 8.62929 15.2883 9.15012C15.4185 9.41054 15.2883 9.54075 15.0279 9.41054C14.6373 9.15012 14.1164 9.01991 13.7258 8.8897C13.4654 8.7595 13.205 8.49908 13.205 8.23866C13.0748 7.71783 12.9446 7.3272 12.6841 6.80637C12.5539 6.54595 12.6841 6.41575 12.9446 6.54595Z" fill="black"/>
<path fill-rule="evenodd" clip-rule="evenodd" d="M8.77793 7.71783C9.16855 7.84804 9.68939 7.97825 10.08 8.10845C10.3404 8.23866 10.6008 8.49908 10.6008 8.62929C10.7311 9.15012 10.9915 9.67095 11.1217 10.0616C11.2519 10.322 11.1217 10.4522 10.8613 10.4522C10.4706 10.322 9.9498 10.1918 9.55918 10.0616C9.29876 10.0616 9.03834 9.80116 9.03834 9.54075C8.90814 9.01991 8.64772 8.49908 8.51751 7.97825C8.3873 7.71783 8.51751 7.58762 8.77793 7.71783Z" fill="black"/>
<path fill-rule="evenodd" clip-rule="evenodd" d="M11.2519 8.49899C11.6425 8.6292 12.1633 8.75941 12.554 9.01982C12.8144 9.15003 13.0748 9.41045 13.0748 9.67087C13.205 10.1917 13.4654 10.5823 13.5956 11.1032C13.7258 11.3636 13.5956 11.4938 13.3352 11.3636C12.9446 11.2334 12.4237 11.1032 12.0331 10.9729C11.7727 10.8427 11.5123 10.5823 11.5123 10.4521C11.3821 9.93128 11.1217 9.41045 10.9915 9.01982C10.9915 8.49899 11.1217 8.36878 11.2519 8.49899Z" fill="black"/>
<path fill-rule="evenodd" clip-rule="evenodd" d="M7.34564 10.1918C7.73627 10.322 8.1269 10.322 8.64773 10.4522C8.90815 10.4522 9.16856 10.7126 9.16856 10.973C9.29877 11.4939 9.55919 12.0147 9.6894 12.5355C9.81961 12.7959 9.6894 12.9261 9.42898 12.9261C9.03836 12.7959 8.64773 12.7959 8.2571 12.6657C7.99669 12.6657 7.86648 12.4053 7.73627 12.1449C7.60606 11.6241 7.34564 11.1032 7.21544 10.5824C6.95502 10.322 7.08523 10.1918 7.34564 10.1918Z" fill="black"/>
<path fill-rule="evenodd" clip-rule="evenodd" d="M9.81956 10.7125C10.2102 10.8427 10.731 10.9729 11.1216 11.1031C11.3821 11.1031 11.6425 11.3636 11.6425 11.624C11.7727 12.1448 12.0331 12.6657 12.1633 13.0563C12.2935 13.3167 12.1633 13.4469 11.9029 13.4469C11.5123 13.3167 10.9914 13.1865 10.6008 13.1865C10.3404 13.1865 10.08 12.9261 10.08 12.6657C9.94976 12.1448 9.68935 11.624 9.55914 11.1031C9.42893 10.8427 9.55914 10.7125 9.81956 10.7125Z" fill="black"/>
<path fill-rule="evenodd" clip-rule="evenodd" d="M12.2935 11.4938C12.6841 11.624 13.205 11.7542 13.5956 11.8844C13.856 12.0146 14.1164 12.275 14.1164 12.5354C14.2466 13.0563 14.507 13.4469 14.6372 13.9677C14.7675 14.2281 14.6372 14.3584 14.3768 14.2281C13.9862 14.0979 13.4654 13.9677 13.0747 13.8375C12.8143 13.7073 12.5539 13.5771 12.5539 13.3167C12.4237 12.7959 12.1633 12.275 12.0331 11.8844C12.0331 11.4938 12.0331 11.3636 12.2935 11.4938Z" fill="black"/>
<path fill-rule="evenodd" clip-rule="evenodd" d="M14.8977 12.4053C15.2883 12.5355 15.8091 12.796 16.1998 12.9262C16.4602 13.0564 16.7206 13.3168 16.7206 13.5772C16.8508 14.098 16.981 14.4887 17.2414 15.0095C17.3716 15.2699 17.2414 15.4001 16.981 15.2699C16.5904 15.1397 16.0696 14.8793 15.6789 14.7491C15.4185 14.6189 15.1581 14.3585 15.1581 14.098C15.0279 13.5772 14.8977 13.1866 14.6373 12.6657C14.5071 12.4053 14.6373 12.2751 14.8977 12.4053Z" fill="black"/>
<path fill-rule="evenodd" clip-rule="evenodd" d="M14.8977 4.98338C15.4185 5.24379 15.8091 5.50421 16.33 5.76463C16.5904 5.89484 16.8508 6.28546 16.981 6.41567C17.1112 6.9365 17.2414 7.32713 17.5018 7.84796C17.6321 8.10838 17.5018 8.10838 17.2414 7.97817C16.5904 7.71775 16.0696 7.45734 15.6789 7.19692C15.4185 7.06671 15.1581 6.80629 15.1581 6.54588C15.0279 6.02504 14.8977 5.63442 14.6373 5.11359C14.5071 4.98338 14.6373 4.85317 14.8977 4.98338Z" fill="black"/>
<path fill-rule="evenodd" clip-rule="evenodd" d="M15.8092 7.84796C16.33 8.10837 16.7206 8.36879 17.2415 8.499C17.5019 8.62921 17.7623 9.01983 17.8925 9.15004C18.0227 9.67087 18.1529 10.0615 18.4133 10.5823C18.5435 10.8427 18.4133 10.8427 18.1529 10.7125C17.6321 10.4521 17.2415 10.1917 16.7206 10.0615C16.4602 9.93129 16.1998 9.67087 16.1998 9.41046C15.8092 9.01983 15.679 8.499 15.5488 8.10837C15.4186 7.84796 15.5488 7.71775 15.8092 7.84796Z" fill="black"/>
<path fill-rule="evenodd" clip-rule="evenodd" d="M16.7206 10.7126C17.2415 10.973 17.6321 11.1033 18.1529 11.3637C18.4133 11.4939 18.6738 11.7543 18.804 12.0147C18.9342 12.5355 19.0644 12.9262 19.3248 13.447C19.455 13.7074 19.3248 13.7074 19.0644 13.5772C18.5436 13.3168 18.1529 13.0564 17.6321 12.9262C17.3717 12.796 17.1113 12.5355 17.1113 12.2751C16.9811 11.7543 16.8508 11.3637 16.5904 10.8428C16.4602 10.7126 16.5904 10.5824 16.7206 10.7126Z" fill="black"/>
<path fill-rule="evenodd" clip-rule="evenodd" d="M17.7623 13.5771C18.2831 13.8375 18.6737 13.9678 19.1946 14.2282C19.455 14.3584 19.7154 14.6188 19.8456 14.8792C19.9758 15.4 20.106 15.7907 20.3664 16.3115C20.4966 16.5719 20.3664 16.5719 20.106 16.4417C19.5852 16.1813 19.1946 16.0511 18.6737 15.7907C18.4133 15.6605 18.1529 15.4 18.1529 15.1396C18.0227 14.6188 17.8925 14.2282 17.6321 13.7073C17.3716 13.5771 17.5019 13.4469 17.7623 13.5771Z" fill="black"/>
<path fill-rule="evenodd" clip-rule="evenodd" d="M17.6321 6.54589C18.1529 6.80631 18.6737 7.19693 19.0643 7.45735C19.3248 7.58756 19.5852 7.97818 19.7154 8.2386C19.8456 8.75943 19.9758 9.15006 20.2362 9.67089C20.3664 9.93131 20.2362 9.93131 19.9758 9.8011C19.455 9.41047 18.9341 9.15006 18.5435 8.88964C18.2831 8.75943 18.0227 8.36881 17.8925 8.2386C17.7623 7.71777 17.6321 7.32714 17.3716 6.80631C17.2414 6.41568 17.3716 6.41568 17.6321 6.54589Z" fill="black"/>
<path fill-rule="evenodd" clip-rule="evenodd" d="M20.6268 8.49898C21.1477 8.88961 21.6685 9.41044 22.1893 9.80107C22.4497 10.0615 22.7102 10.4521 22.8404 10.5823C22.9706 10.9729 23.1008 11.4938 23.3612 12.0146C23.4914 12.275 23.231 12.275 22.9706 12.0146C22.4497 11.624 21.9289 11.1032 21.4081 10.7125C21.1477 10.4521 20.8872 10.1917 20.757 9.93128C20.6268 9.41044 20.4966 9.01982 20.2362 8.49898C20.2362 8.36878 20.3664 8.23857 20.6268 8.49898Z" fill="black"/>
<path fill-rule="evenodd" clip-rule="evenodd" d="M23.8821 11.3636C24.5331 12.0146 25.1842 12.7959 25.9654 13.8376C26.356 14.3584 29.6113 24.124 29.6113 24.124C29.6113 24.124 26.8769 16.3115 26.6165 15.9209C25.9654 15.0094 25.1842 14.2282 24.6633 13.5771C24.4029 13.3167 24.1425 12.9261 24.0123 12.6657C23.8821 12.2751 23.7519 11.7542 23.6217 11.3636C23.3612 10.973 23.6217 11.1032 23.8821 11.3636Z" fill="black"/>
<path fill-rule="evenodd" clip-rule="evenodd" d="M21.5383 11.2334C22.0592 11.624 22.58 12.0146 23.1008 12.5355C23.3612 12.7959 23.6217 13.1865 23.7519 13.3167C23.8821 13.8376 24.0123 14.2282 24.2727 14.749C24.4029 15.0094 24.1425 15.0094 23.8821 14.749C23.3612 14.3584 22.8404 13.8376 22.3196 13.4469C22.0592 13.3167 21.7987 12.9261 21.6685 12.6657C21.5383 12.1449 21.4081 11.7542 21.1477 11.2334C21.1477 11.1032 21.2779 11.1032 21.5383 11.2334Z" fill="black"/>
<path fill-rule="evenodd" clip-rule="evenodd" d="M24.7935 14.098C25.4446 14.749 26.0956 15.5303 26.7467 16.4417C27.1373 16.8324 29.6113 24.124 29.6113 24.124C29.6113 24.124 27.7883 18.7855 27.3977 18.3949C26.7467 17.6136 26.0956 16.8324 25.4446 16.3115C25.1842 16.0511 24.9238 15.6605 24.7935 15.4001C24.6633 14.8792 24.5331 14.4886 24.4029 14.098C24.2727 13.7074 24.5331 13.8376 24.7935 14.098Z" fill="black"/>
<path fill-rule="evenodd" clip-rule="evenodd" d="M19.5851 12.1448C20.106 12.4052 20.4966 12.7959 21.0174 13.0563C21.2779 13.1865 21.5383 13.5771 21.6685 13.8375C21.7987 14.3584 21.9289 14.749 22.1893 15.2698C22.3195 15.5302 22.1893 15.5302 21.9289 15.4C21.4081 15.1396 20.8872 14.749 20.4966 14.4886C20.2362 14.3584 19.9758 14.098 19.9758 13.8375C19.8456 13.3167 19.7154 12.9261 19.4549 12.4052C19.1945 12.1448 19.3247 12.0146 19.5851 12.1448Z" fill="black"/>
<path fill-rule="evenodd" clip-rule="evenodd" d="M22.4498 14.098C22.9707 14.4886 23.4915 14.8793 24.0123 15.4001C24.2727 15.6605 24.5332 16.0511 24.6634 16.1813C24.7936 16.7022 24.9238 17.0928 25.1842 17.6136C25.3144 17.874 25.054 17.874 24.7936 17.6136C24.2727 17.223 23.7519 16.8324 23.2311 16.4418C22.9707 16.3115 22.7102 15.9209 22.58 15.6605C22.4498 15.1397 22.3196 14.749 22.0592 14.2282C22.0592 13.9678 22.1894 13.8376 22.4498 14.098Z" fill="black"/>
<path fill-rule="evenodd" clip-rule="evenodd" d="M25.705 16.8324C26.356 17.3532 27.007 18.1344 27.6581 18.9157C28.0487 19.3063 29.7414 24.124 29.7414 24.124C29.7414 24.124 28.6997 21.3896 28.3091 20.999C27.6581 20.2178 27.007 19.5667 26.4862 19.0459C26.2258 18.7855 25.9654 18.3949 25.8352 18.1344C25.705 17.7438 25.5747 17.223 25.4445 16.8324C25.1841 16.4417 25.4445 16.5719 25.705 16.8324Z" fill="black"/>
<path fill-rule="evenodd" clip-rule="evenodd" d="M20.4966 15.0095C21.0175 15.2699 21.4081 15.6605 21.9289 15.9209C22.1894 16.0511 22.4498 16.4417 22.58 16.7022C22.7102 17.223 22.8404 17.6136 23.1008 18.1345C23.231 18.3949 23.1008 18.3949 22.8404 18.2647C22.3196 18.0042 21.7987 17.6136 21.4081 17.3532C21.1477 17.223 20.8873 16.9626 20.8873 16.7022C20.7571 16.1813 20.6269 15.7907 20.3664 15.2699C20.106 15.0095 20.2362 14.8792 20.4966 15.0095Z" fill="black"/>
<path fill-rule="evenodd" clip-rule="evenodd" d="M23.4914 16.9626C24.0123 17.3532 24.5331 17.7439 25.0539 18.1345C25.3143 18.3949 25.5748 18.7855 25.705 18.9157C25.8352 19.4366 25.9654 19.8272 26.2258 20.348C26.356 20.6084 26.0956 20.6084 25.8352 20.348C25.3143 19.9574 24.7935 19.5668 24.2727 19.1762C24.0123 19.0459 23.7518 18.6553 23.6216 18.3949C23.4914 17.8741 23.3612 17.4834 23.1008 16.9626C22.9706 16.8324 23.231 16.7022 23.4914 16.9626Z" fill="black"/>
<path fill-rule="evenodd" clip-rule="evenodd" d="M26.6164 19.4365C27.2675 19.9574 27.7883 20.6084 28.4393 21.3896C28.6998 21.7803 29.6112 23.9938 29.6112 23.9938C29.6112 23.9938 29.3508 23.7334 29.0904 23.3428C28.4393 22.6917 27.9185 22.0407 27.2675 21.5199C27.007 21.2594 26.7466 20.8688 26.6164 20.7386C26.4862 20.348 26.356 19.8271 26.2258 19.4365C26.0956 19.1761 26.356 19.1761 26.6164 19.4365Z" fill="black"/>
<path fill-rule="evenodd" clip-rule="evenodd" d="M23.1008 53.4209C23.4914 53.0302 23.8821 52.7698 24.2727 52.3792C24.4029 52.249 24.4029 51.9886 24.2727 51.8584C23.8821 51.4677 23.6216 51.0771 23.231 50.8167C23.1008 50.6865 22.9706 50.6865 22.7102 50.8167C22.3196 51.2073 21.9289 51.4677 21.5383 51.7281C21.4081 51.8584 21.4081 51.9886 21.5383 52.1188C21.9289 52.5094 22.1894 52.9 22.58 53.2907C22.8404 53.5511 22.9706 53.5511 23.1008 53.4209ZM19.5852 45.4782C19.9758 45.0875 20.3664 44.8271 20.7571 44.4365C20.8873 44.3063 20.8873 44.0459 20.7571 43.9156C20.4966 43.525 20.106 43.2646 19.8456 42.874C19.7154 42.7438 19.5852 42.7438 19.455 42.874C19.0644 43.1344 18.6737 43.525 18.2831 43.7854C18.1529 43.9156 18.1529 44.0459 18.2831 44.1761C18.6737 44.5667 18.9341 44.9573 19.3248 45.2177C19.3248 45.6084 19.455 45.6084 19.5852 45.4782ZM21.6685 43.525C22.0591 43.1344 22.3196 42.7438 22.7102 42.4834C22.8404 42.3531 22.8404 42.0927 22.7102 41.9625C22.4498 41.5719 22.0591 41.3115 21.7987 40.9209C21.6685 40.7906 21.5383 40.7906 21.4081 40.9209C21.0175 41.3115 20.7571 41.5719 20.3664 41.9625C20.2362 42.0927 20.2362 42.2229 20.3664 42.3531C20.6269 42.7438 21.0175 43.0042 21.2779 43.3948C21.4081 43.6552 21.5383 43.6552 21.6685 43.525ZM23.6216 41.4417C24.0123 41.0511 24.2727 40.6604 24.5331 40.2698C24.6633 40.1396 24.6633 39.8792 24.5331 39.749C24.2727 39.4886 24.0123 39.0979 23.6216 38.8375C23.4914 38.7073 23.3612 38.7073 23.231 38.8375C22.8404 39.2281 22.58 39.6188 22.1894 40.0094C22.0591 40.1396 22.0591 40.4 22.1894 40.5302C22.4498 40.9209 22.8404 41.1813 23.1008 41.5719C23.3612 41.7021 23.4914 41.5719 23.6216 41.4417ZM25.4446 39.2281C25.705 38.8375 25.9654 38.4469 26.356 37.9261C26.4862 37.7959 26.4862 37.5354 26.356 37.4052C26.0956 37.1448 25.8352 36.8844 25.5748 36.4938C25.4446 36.3636 25.3144 36.3636 25.1841 36.624C24.9237 37.0146 24.5331 37.4052 24.2727 37.7959C24.1425 37.9261 24.1425 38.1865 24.2727 38.3167C24.5331 38.5771 24.7935 38.9677 25.1841 39.2281C25.0539 39.4886 25.3144 39.4886 25.4446 39.2281ZM27.0071 36.8844C27.2675 36.4938 27.5279 35.9729 27.7883 35.4521C27.9185 35.3219 27.9185 35.0615 27.7883 34.9313C27.5279 34.6709 27.2675 34.4104 27.1373 34.15C27.0071 34.0198 26.8769 34.15 26.7466 34.2802C26.4862 34.6709 26.2258 35.1917 25.8352 35.5823C25.705 35.7125 25.705 35.9729 25.8352 36.1031C26.0956 36.3636 26.356 36.624 26.6164 37.0146C26.7466 37.1448 26.8769 37.0146 27.0071 36.8844ZM28.4394 34.2802C28.6998 33.7594 28.83 33.2386 29.0904 32.7177C29.2206 32.5875 29.0904 32.3271 29.0904 32.1969C28.83 31.9365 28.6998 31.8063 28.4394 31.5459C28.3091 31.4156 28.3091 31.5459 28.1789 31.6761C27.9185 32.1969 27.6581 32.5875 27.3977 33.1084C27.2675 33.2386 27.2675 33.499 27.3977 33.6292C27.6581 33.8896 27.9185 34.15 28.0487 34.4104C28.1789 34.5406 28.3091 34.4104 28.4394 34.2802ZM29.481 31.2854C29.6112 30.7646 29.7414 30.1136 29.8716 29.4625C29.8716 29.2021 29.8716 28.9417 29.8716 28.9417C29.7414 28.8115 29.6112 28.6813 29.481 28.5511C29.481 28.5511 29.3508 28.6813 29.3508 28.8115C29.2206 29.3323 28.9602 29.8531 28.83 30.374C28.6998 30.5042 28.6998 30.7646 28.83 30.8948C28.9602 31.1552 29.2206 31.2854 29.3508 31.5459C29.3508 31.5459 29.481 31.5459 29.481 31.2854ZM23.4914 45.4782C23.8821 45.0875 24.1425 44.6969 24.5331 44.3063C24.6633 44.1761 24.6633 43.9156 24.5331 43.7854C24.2727 43.3948 23.8821 43.1344 23.6216 42.7438C23.4914 42.6136 23.3612 42.6136 23.231 42.7438C22.8404 43.1344 22.58 43.525 22.1894 43.7854C22.0591 43.9156 22.0591 44.1761 22.1894 44.3063C22.4498 44.6969 22.8404 44.9573 23.1008 45.3479C23.231 45.6084 23.3612 45.6084 23.4914 45.4782ZM25.3144 43.3948C25.5748 43.0042 25.9654 42.6136 26.2258 42.2229C26.356 42.0927 26.356 41.8323 26.2258 41.7021C25.9654 41.4417 25.5748 41.0511 25.3144 40.7906C25.1841 40.6604 25.0539 40.6604 24.9237 40.7906C24.6633 41.1813 24.2727 41.5719 24.0123 41.9625C23.8821 42.0927 23.8821 42.3531 24.0123 42.4834C24.2727 42.874 24.6633 43.1344 24.9237 43.525C25.0539 43.525 25.1841 43.525 25.3144 43.3948ZM27.0071 41.0511C27.2675 40.6604 27.5279 40.1396 27.7883 39.749C27.9185 39.6188 27.9185 39.3584 27.7883 39.2281C27.5279 38.9677 27.2675 38.7073 27.0071 38.3167C26.8769 38.1865 26.7466 38.3167 26.6164 38.4469C26.356 38.8375 26.0956 39.3584 25.705 39.749C25.5748 39.8792 25.5748 40.1396 25.705 40.2698C25.9654 40.5302 26.2258 40.9209 26.6164 41.1813C26.7466 41.1813 26.8769 41.1813 27.0071 41.0511ZM28.4394 38.4469C28.6998 37.9261 28.9602 37.5354 29.0904 37.0146C29.2206 36.8844 29.2206 36.624 29.0904 36.4938C28.83 36.2334 28.5696 35.9729 28.4394 35.7125C28.3091 35.5823 28.1789 35.7125 28.1789 35.8427C27.9185 36.3636 27.6581 36.7542 27.3977 37.275C27.2675 37.4052 27.2675 37.6656 27.3977 37.7959C27.6581 38.0563 27.9185 38.3167 28.1789 38.7073C28.1789 38.7073 28.3091 38.5771 28.4394 38.4469ZM29.6112 35.5823C29.7414 35.0615 30.0019 34.5406 30.1321 33.8896C30.1321 33.6292 30.1321 33.499 30.1321 33.3688C29.8716 33.1084 29.7414 32.9781 29.481 32.7177C29.3508 32.5875 29.3508 32.7177 29.2206 32.9781C29.0904 33.499 28.83 34.0198 28.5696 34.5406C28.4394 34.6709 28.4394 34.9313 28.5696 35.0615C28.83 35.3219 29.0904 35.5823 29.2206 35.8427C29.481 35.8427 29.6112 35.8427 29.6112 35.5823ZM30.5227 32.3271C30.6529 31.6761 30.6529 31.025 30.6529 30.374C30.6529 30.1136 30.6529 29.8531 30.5227 29.8531C30.3925 29.7229 30.2623 29.5927 30.1321 29.4625C30.1321 29.4625 30.0019 29.5927 30.0019 29.8531C29.8716 30.5042 29.7414 31.1552 29.6112 31.6761C29.6112 31.9365 29.6112 32.0667 29.6112 32.1969C29.7414 32.4573 30.0019 32.5875 30.1321 32.8479C30.3925 32.7177 30.3925 32.5875 30.5227 32.3271ZM23.3612 49.5146C23.7519 49.124 24.1425 48.8636 24.4029 48.4729C24.5331 48.3427 24.5331 48.0823 24.4029 47.9521C24.1425 47.5615 23.7519 47.3011 23.4914 46.9104C23.3612 46.7802 23.231 46.7802 23.1008 46.9104C22.7102 47.3011 22.3196 47.5615 22.0591 47.9521C21.9289 48.0823 21.9289 48.2125 22.0591 48.3427C22.4498 48.7334 22.7102 49.124 23.1008 49.3844C22.9706 49.5146 23.231 49.6448 23.3612 49.5146ZM25.3144 47.4313C25.5748 47.0407 25.9654 46.65 26.2258 46.2594C26.356 46.1292 26.356 45.8688 26.2258 45.7386C25.9654 45.3479 25.5748 45.0875 25.3144 44.6969C25.1841 44.5667 25.0539 44.5667 24.9237 44.6969C24.5331 45.0875 24.2727 45.4781 23.8821 45.8688C23.7519 45.999 23.7519 46.2594 23.8821 46.3896C24.1425 46.7802 24.5331 47.0407 24.7935 47.4313C24.9237 47.5615 25.1841 47.5615 25.3144 47.4313ZM27.0071 45.2177C27.2675 44.8271 27.6581 44.4365 27.9185 43.9156C28.0487 43.7854 28.0487 43.525 27.9185 43.3948C27.6581 43.1344 27.3977 42.7438 27.0071 42.4834C26.8769 42.3531 26.7466 42.3531 26.6164 42.6136C26.356 43.0042 25.9654 43.3948 25.705 43.9156C25.5748 44.0459 25.5748 44.3063 25.705 44.4365C25.9654 44.8271 26.356 45.0875 26.6164 45.4782C26.7466 45.3479 26.8769 45.3479 27.0071 45.2177ZM28.5696 42.7438C28.83 42.2229 29.0904 41.8323 29.3508 41.3115C29.481 41.1813 29.481 40.9209 29.3508 40.7906C29.0904 40.5302 28.83 40.2698 28.5696 39.8792C28.4394 39.749 28.3091 39.8792 28.1789 40.0094C27.9185 40.5302 27.6581 40.9209 27.3977 41.3115C27.2675 41.4417 27.2675 41.7021 27.3977 41.8323C27.6581 42.0927 27.9185 42.4834 28.3091 42.7438C28.3091 42.874 28.5696 42.874 28.5696 42.7438ZM29.8716 40.0094C30.1321 39.4886 30.2623 38.9677 30.3925 38.4469C30.3925 38.1865 30.3925 38.0563 30.3925 37.9261C30.1321 37.6656 29.8716 37.4052 29.7414 37.1448C29.6112 37.0146 29.481 37.1448 29.481 37.275C29.2206 37.7959 29.0904 38.3167 28.83 38.8375C28.6998 38.9677 28.6998 39.2281 28.83 39.3584C29.0904 39.6188 29.3508 39.8792 29.6112 40.1396C29.7414 40.2698 29.8716 40.1396 29.8716 40.0094ZM30.9133 36.8844C31.0435 36.2334 31.1737 35.7125 31.3039 35.0615C31.3039 34.8011 31.3039 34.5406 31.1737 34.5406C31.0435 34.2802 30.7831 34.15 30.5227 33.8896C30.3925 33.7594 30.3925 33.8896 30.2623 34.15C30.1321 34.8011 30.0019 35.3219 29.7414 35.8427C29.7414 36.1031 29.7414 36.2334 29.7414 36.3636C30.0019 36.624 30.2623 36.8844 30.3925 37.1448C30.7831 37.275 30.9133 37.1448 30.9133 36.8844ZM31.4341 33.3688C31.4341 32.7177 31.4341 31.9365 31.4341 31.1552C31.4341 30.8948 31.3039 30.6344 31.3039 30.5042C31.1737 30.374 31.0435 30.2438 30.9133 30.1136C30.9133 30.1136 30.7831 30.2438 30.7831 30.5042C30.7831 31.2854 30.6529 31.9365 30.6529 32.5875C30.6529 32.8479 30.6529 33.1084 30.7831 33.1084C30.9133 33.3688 31.1737 33.499 31.3039 33.7594C31.4341 33.7594 31.4341 33.6292 31.4341 33.3688ZM25.1841 51.4677C25.5748 51.0771 25.8352 50.6865 26.2258 50.2959C26.356 50.1656 26.356 49.9052 26.2258 49.775C25.9654 49.3844 25.5748 49.124 25.3144 48.7334C25.1841 48.6032 25.0539 48.6032 24.9237 48.7334C24.5331 49.124 24.2727 49.5146 23.8821 49.775C23.7519 49.9052 23.7519 50.1656 23.8821 50.2959C24.2727 50.6865 24.5331 51.0771 24.9237 51.3375C24.9237 51.5979 25.0539 51.5979 25.1841 51.4677ZM27.1373 49.3844C27.3977 48.9938 27.7883 48.6031 28.0487 48.2125C28.1789 48.0823 28.1789 47.8219 28.0487 47.6917C27.7883 47.3011 27.3977 47.0406 27.1373 46.65C27.0071 46.5198 26.8769 46.5198 26.7466 46.65C26.4862 47.0406 26.0956 47.4313 25.8352 47.8219C25.705 47.9521 25.705 48.2125 25.8352 48.3427C26.0956 48.7334 26.4862 48.9938 26.7466 49.3844C26.7466 49.5146 27.0071 49.5146 27.1373 49.3844ZM30.2623 44.4365C30.5227 43.9156 30.6529 43.3948 30.9133 42.874C31.0435 42.7438 30.9133 42.4834 30.9133 42.3531C30.6529 42.0927 30.3925 41.8323 30.1321 41.4417C30.0019 41.3115 29.8716 41.4417 29.7414 41.5719C29.481 42.0927 29.2206 42.4834 29.0904 43.0042C28.9602 43.1344 28.9602 43.3948 29.0904 43.525C29.3508 43.7854 29.6112 44.1761 30.0019 44.4365C30.0019 44.6969 30.1321 44.5667 30.2623 44.4365ZM31.3039 41.5719C31.4341 41.0511 31.6946 40.5302 31.8248 39.8792C31.8248 39.6188 31.8248 39.4886 31.8248 39.3584C31.5644 39.0979 31.3039 38.8375 31.1737 38.5771C31.0435 38.4469 30.9133 38.5771 30.9133 38.8375C30.7831 39.3584 30.5227 39.8792 30.3925 40.4C30.2623 40.5302 30.3925 40.7906 30.3925 40.9209C30.6529 41.1813 30.9133 41.4417 31.1737 41.8323C31.1737 41.8323 31.3039 41.7021 31.3039 41.5719ZM32.2154 38.3167C32.3456 37.6656 32.3456 37.0146 32.4758 36.3636C32.4758 36.1031 32.4758 35.8427 32.3456 35.7125C32.0852 35.4521 31.955 35.3219 31.6946 35.0615C31.5644 34.9313 31.5644 35.0615 31.5644 35.3219C31.4341 35.9729 31.3039 36.624 31.1737 37.1448C31.1737 37.4052 31.1737 37.6656 31.3039 37.6656C31.5644 37.9261 31.8248 38.1865 31.955 38.4469C32.0852 38.7073 32.0852 38.5771 32.2154 38.3167ZM32.4758 34.5406C32.4758 33.7594 32.3456 32.9781 32.2154 32.0667C32.2154 31.6761 32.0852 31.4156 32.0852 31.4156C31.955 31.2854 31.8248 31.1552 31.6946 31.025C31.6946 31.025 31.6946 31.1552 31.6946 31.4156C31.8248 32.1969 31.8248 32.9781 31.8248 33.7594C31.8248 34.0198 31.8248 34.2802 31.955 34.4104C32.0852 34.6709 32.3456 34.8011 32.4758 35.0615C32.4758 34.9313 32.4758 34.8011 32.4758 34.5406ZM31.6946 29.4625C31.3039 28.4209 30.9133 27.1188 30.1321 25.5563C29.8716 24.9052 29.6112 24.5146 29.6112 24.5146C29.6112 24.5146 29.6112 24.775 29.6112 25.0354C29.6112 25.8167 29.6112 26.4677 29.481 27.1188C29.481 27.3792 29.481 27.5094 29.481 27.6396C29.6112 27.7698 29.7414 27.9 29.8716 28.0302C29.8716 28.0302 30.0019 27.9 30.0019 27.6396C30.0019 26.8584 29.8716 26.0771 29.7414 25.1656C29.6112 24.775 29.6112 24.5146 29.6112 24.5146C29.6112 24.5146 29.7414 24.775 29.7414 25.1656C30.0019 26.0771 30.0019 26.9886 30.1321 27.7698C30.1321 28.0302 30.1321 28.2906 30.2623 28.2906C30.3925 28.4209 30.5227 28.5511 30.6529 28.6813C30.6529 28.6813 30.6529 28.5511 30.6529 28.1604C30.5227 27.249 30.3925 26.3375 30.0019 25.1656C29.8716 24.775 29.7414 24.3844 29.7414 24.3844C29.7414 24.3844 29.8716 24.775 30.0019 25.1656C30.3925 26.3375 30.6529 27.3792 30.7831 28.1604C30.7831 28.4209 30.9133 28.6813 30.9133 28.8115C31.0435 28.9417 31.1737 29.0719 31.3039 29.2021C31.3039 29.2021 31.3039 29.0719 31.3039 28.6813C31.0435 27.6396 30.7831 26.5979 30.2623 25.2959C30.0019 24.775 29.8716 24.3844 29.8716 24.3844C29.8716 24.3844 30.1321 24.775 30.2623 25.2959C30.7831 26.5979 31.1737 27.7698 31.4341 28.8115C31.5644 29.2021 31.5644 29.4625 31.6946 29.4625C31.8248 29.5927 31.955 29.7229 32.0852 29.8531C31.8248 30.1136 31.8248 29.8531 31.6946 29.4625ZM19.3248 49.2542C19.7154 48.9938 20.106 48.6031 20.4966 48.3427C20.6269 48.2125 20.6269 48.0823 20.4966 47.9521C20.106 47.5615 19.8456 47.1709 19.455 46.9104C19.3248 46.7802 19.0644 46.7802 18.9341 46.9104C18.5435 47.1709 18.1529 47.5615 17.7623 47.8219C17.6321 47.9521 17.6321 48.0823 17.7623 48.2125C18.1529 48.6031 18.4133 48.9938 18.8039 49.3844C18.9341 49.2542 19.1946 49.3844 19.3248 49.2542Z" fill="black"/>
<path fill-rule="evenodd" clip-rule="evenodd" d="M42.8925 30.374L56.6946 16.7021H44.9758L37.0331 24.5146L29.0904 16.7021H27.3977C27.5279 17.0928 27.7883 17.6136 28.0487 18.1344C28.83 20.2178 29.7415 23.2126 30.6529 26.8584C33.2571 29.8532 34.429 33.8896 34.1685 38.9678L36.9029 36.2334L45.3665 44.6969H57.0852L43.9342 31.4157L42.8925 30.374Z" fill="black"/>
</svg>
