<svg width="250" height="55" viewBox="0 0 250 55" fill="none" xmlns="http://www.w3.org/2000/svg">
<g clip-path="url(#clip0_130_19)">
<path fill-rule="evenodd" clip-rule="evenodd" d="M31.3802 3.38546C31.7708 3.51567 32.1614 3.51567 32.6823 3.64588C32.9427 3.64588 33.2031 3.9063 33.2031 4.16671C33.3333 4.68755 33.5937 5.20838 33.7239 5.85942C33.8541 6.11984 33.7239 6.38026 33.4635 6.25005C33.0729 6.11984 32.6823 6.11984 32.2916 5.98963C32.0312 5.98963 31.901 5.72921 31.7708 5.4688C31.6406 4.94796 31.3802 4.29692 31.25 3.77609C31.1198 3.51567 31.25 3.25526 31.3802 3.38546Z" fill="white"/>
<path fill-rule="evenodd" clip-rule="evenodd" d="M32.8125 0.651088C33.2031 0.781296 33.7239 0.911505 34.1146 1.04171C34.375 1.04171 34.6354 1.43234 34.6354 1.69275C34.7656 2.08338 35.026 2.60421 35.1562 3.12505C35.2864 3.38546 35.1562 3.51567 34.8958 3.51567C34.5052 3.38546 34.1146 3.25525 33.5937 3.25525C33.3333 3.25525 33.0729 2.99484 33.0729 2.60421C32.9427 2.08338 32.6823 1.56255 32.5521 0.911505C32.4218 0.781296 32.5521 0.52088 32.8125 0.651088Z" fill="white"/>
<path fill-rule="evenodd" clip-rule="evenodd" d="M35.2864 1.30212C35.6771 1.43233 36.1979 1.56254 36.5885 1.69275C36.8489 1.82296 37.1094 2.08337 37.1094 2.34379C37.3698 2.86462 37.5 3.38546 37.7604 3.90629C37.8906 4.16671 37.7604 4.29692 37.5 4.29692C37.1094 4.16671 36.5885 4.0365 36.1979 3.90629C35.9375 3.90629 35.6771 3.51567 35.6771 3.25525C35.5469 2.73442 35.2864 2.21358 35.1562 1.69275C35.026 1.43233 35.1562 1.30212 35.2864 1.30212Z" fill="white"/>
<path fill-rule="evenodd" clip-rule="evenodd" d="M43.0989 4.16675C43.4895 4.29696 44.0104 4.55737 44.401 4.81779C44.6614 4.948 44.9218 5.20841 44.9218 5.46883C45.052 5.98966 45.1823 6.38029 45.4427 6.90112C45.5729 7.16154 45.4427 7.29175 45.1823 7.16154C44.7916 6.90112 44.2708 6.77091 43.8802 6.64071C43.6198 6.5105 43.3593 6.25008 43.3593 5.98966C43.2291 5.46883 43.0989 5.07821 42.8385 4.55737C42.8385 4.16675 42.9687 4.16675 43.0989 4.16675Z" fill="white"/>
<path fill-rule="evenodd" clip-rule="evenodd" d="M33.8541 3.90634C34.2448 4.03655 34.6354 4.03655 35.1562 4.16675C35.4166 4.16675 35.677 4.42717 35.677 4.8178C35.8072 5.33863 36.0677 5.85946 36.1979 6.3803C36.3281 6.64071 36.1979 6.77092 35.9375 6.77092C35.5468 6.64071 35.1562 6.51051 34.7656 6.51051C34.5052 6.51051 34.375 6.25009 34.2447 5.98967C34.1145 5.46884 33.8541 4.948 33.7239 4.29696C33.5937 4.03655 33.7239 3.77613 33.8541 3.90634Z" fill="white"/>
<path fill-rule="evenodd" clip-rule="evenodd" d="M36.3281 4.55734C36.7187 4.68755 37.2396 4.81776 37.6302 4.94796C37.8906 4.94796 38.151 5.20838 38.151 5.4688C38.2812 5.98963 38.5416 6.51046 38.6719 7.0313C38.8021 7.29171 38.6719 7.42192 38.4114 7.42192C38.0208 7.29171 37.5 7.16151 37.1094 7.16151C36.8489 7.16151 36.5885 6.90109 36.5885 6.64067C36.4583 6.11984 36.1979 5.59901 36.0677 5.07817C36.0677 4.55734 36.1979 4.42713 36.3281 4.55734Z" fill="white"/>
<path fill-rule="evenodd" clip-rule="evenodd" d="M38.9323 5.20837C39.3229 5.33858 39.8437 5.46879 40.2344 5.599C40.4948 5.72921 40.7552 5.98962 40.7552 6.25004C40.8854 6.77087 41.1458 7.29171 41.276 7.68233C41.4062 7.94275 41.276 8.07296 41.0156 7.94275C40.625 7.81254 40.1042 7.68233 39.7135 7.55212C39.4531 7.55212 39.1927 7.29171 39.1927 7.03129C39.0625 6.51046 38.8021 5.98962 38.6719 5.46879C38.5417 5.33858 38.6719 5.20837 38.9323 5.20837Z" fill="white"/>
<path fill-rule="evenodd" clip-rule="evenodd" d="M41.5364 6.11981C41.927 6.25002 42.4479 6.38022 42.8385 6.64064C43.0989 6.77085 43.3593 7.03127 43.3593 7.29168C43.4895 7.81252 43.6197 8.20314 43.8802 8.72397C44.0104 8.98439 43.8802 9.1146 43.6197 8.98439C43.2291 8.85418 42.7083 8.72397 42.3177 8.46356C42.0572 8.33335 41.7968 8.07293 41.7968 7.81252C41.6666 7.29168 41.4062 6.77085 41.276 6.38022C41.1458 6.11981 41.276 5.9896 41.5364 6.11981Z" fill="white"/>
<path fill-rule="evenodd" clip-rule="evenodd" d="M44.1406 7.16156C44.5312 7.29176 45.0521 7.55218 45.4427 7.68239C45.7031 7.8126 45.9635 8.07301 45.9635 8.33343C46.0937 8.85426 46.2239 9.24489 46.4843 9.76572C46.6146 10.0261 46.4843 10.1563 46.2239 10.0261C45.8333 9.76572 45.3125 9.63551 44.9218 9.5053C44.6614 9.3751 44.401 9.11468 44.401 8.85426C44.2708 8.33343 44.1406 7.9428 43.8802 7.42197C43.75 7.16155 43.8802 7.03135 44.1406 7.16156Z" fill="white"/>
<path fill-rule="evenodd" clip-rule="evenodd" d="M39.9739 8.33343C40.3645 8.46364 40.8854 8.59385 41.276 8.72405C41.5364 8.85426 41.7968 9.11468 41.7968 9.24489C41.927 9.76572 42.1875 10.2866 42.3177 10.6772C42.4479 10.9376 42.3177 11.0678 42.0572 11.0678C41.6666 10.9376 41.1458 10.8074 40.7552 10.6772C40.4947 10.6772 40.2343 10.4168 40.2343 10.1563C40.1041 9.63551 39.8437 9.11468 39.7135 8.59385C39.5833 8.33343 39.7135 8.20322 39.9739 8.33343Z" fill="white"/>
<path fill-rule="evenodd" clip-rule="evenodd" d="M42.4479 9.11459C42.8385 9.2448 43.3594 9.37501 43.75 9.63542C44.0104 9.76563 44.2708 10.026 44.2708 10.2865C44.401 10.8073 44.6615 11.1979 44.7917 11.7188C44.9219 11.9792 44.7917 12.1094 44.5313 11.9792C44.1406 11.849 43.6198 11.7188 43.2292 11.5885C42.9687 11.4583 42.7083 11.1979 42.7083 11.0677C42.5781 10.5469 42.3177 10.026 42.1875 9.63542C42.1875 9.11459 42.3177 8.98438 42.4479 9.11459Z" fill="white"/>
<path fill-rule="evenodd" clip-rule="evenodd" d="M38.5416 10.8074C38.9323 10.9376 39.3229 10.9376 39.8437 11.0678C40.1041 11.0678 40.3645 11.3282 40.3645 11.5886C40.4948 12.1095 40.7552 12.6303 40.8854 13.1511C41.0156 13.4115 40.8854 13.5417 40.625 13.5417C40.2343 13.4115 39.8437 13.4115 39.4531 13.2813C39.1927 13.2813 39.0625 13.0209 38.9323 12.7605C38.802 12.2397 38.5416 11.7188 38.4114 11.198C38.151 10.9376 38.2812 10.8074 38.5416 10.8074Z" fill="white"/>
<path fill-rule="evenodd" clip-rule="evenodd" d="M41.0156 11.3281C41.4062 11.4583 41.9271 11.5885 42.3177 11.7188C42.5781 11.7188 42.8385 11.9792 42.8385 12.2396C42.9687 12.7604 43.2291 13.2813 43.3593 13.6719C43.4896 13.9323 43.3593 14.0625 43.0989 14.0625C42.7083 13.9323 42.1875 13.8021 41.7968 13.8021C41.5364 13.8021 41.276 13.5417 41.276 13.2813C41.1458 12.7604 40.8854 12.2396 40.7552 11.7188C40.625 11.4583 40.7552 11.3281 41.0156 11.3281Z" fill="white"/>
<path fill-rule="evenodd" clip-rule="evenodd" d="M43.4895 12.1094C43.8802 12.2396 44.401 12.3698 44.7916 12.5C45.052 12.6302 45.3125 12.8906 45.3125 13.151C45.4427 13.6719 45.7031 14.0625 45.8333 14.5833C45.9635 14.8437 45.8333 14.974 45.5729 14.8437C45.1822 14.7135 44.6614 14.5833 44.2708 14.4531C44.0104 14.3229 43.75 14.1927 43.75 13.9323C43.6197 13.4115 43.3593 12.8906 43.2291 12.5C43.2291 12.1094 43.2291 11.9792 43.4895 12.1094Z" fill="white"/>
<path fill-rule="evenodd" clip-rule="evenodd" d="M46.0937 13.0209C46.4844 13.1511 47.0052 13.4116 47.3958 13.5418C47.6562 13.672 47.9166 13.9324 47.9166 14.1928C48.0468 14.7136 48.1771 15.1043 48.4375 15.6251C48.5677 15.8855 48.4375 16.0157 48.1771 15.8855C47.7864 15.7553 47.2656 15.4949 46.875 15.3647C46.6146 15.2345 46.3541 14.9741 46.3541 14.7136C46.2239 14.1928 46.0937 13.8022 45.8333 13.2813C45.7031 13.0209 45.8333 12.8907 46.0937 13.0209Z" fill="white"/>
<path fill-rule="evenodd" clip-rule="evenodd" d="M46.0937 5.59898C46.6146 5.85939 47.0052 6.11981 47.526 6.38023C47.7864 6.51044 48.0468 6.90106 48.1771 7.03127C48.3073 7.5521 48.4375 7.94273 48.6979 8.46356C48.8281 8.72398 48.6979 8.72398 48.4375 8.59377C47.7864 8.33335 47.2656 8.07294 46.875 7.81252C46.6146 7.68231 46.3541 7.42189 46.3541 7.16148C46.2239 6.64064 46.0937 6.25002 45.8333 5.72919C45.7031 5.59898 45.8333 5.46877 46.0937 5.59898Z" fill="white"/>
<path fill-rule="evenodd" clip-rule="evenodd" d="M47.0052 8.46356C47.5261 8.72397 47.9167 8.98439 48.4375 9.1146C48.6979 9.24481 48.9583 9.63543 49.0886 9.76564C49.2188 10.2865 49.349 10.6771 49.6094 11.1979C49.7396 11.4583 49.6094 11.4583 49.349 11.3281C48.8281 11.0677 48.4375 10.8073 47.9167 10.6771C47.6563 10.5469 47.3958 10.2865 47.3958 10.0261C47.0052 9.63543 46.875 9.1146 46.7448 8.72397C46.6146 8.46356 46.7448 8.33335 47.0052 8.46356Z" fill="white"/>
<path fill-rule="evenodd" clip-rule="evenodd" d="M47.9166 11.3282C48.4375 11.5886 48.8281 11.7189 49.3489 11.9793C49.6093 12.1095 49.8697 12.3699 50 12.6303C50.1302 13.1511 50.2604 13.5418 50.5208 14.0626C50.651 14.323 50.5208 14.323 50.2604 14.1928C49.7395 13.9324 49.3489 13.672 48.8281 13.5418C48.5677 13.4116 48.3072 13.1511 48.3072 12.8907C48.177 12.3699 48.0468 11.9793 47.7864 11.4584C47.6562 11.3282 47.7864 11.198 47.9166 11.3282Z" fill="white"/>
<path fill-rule="evenodd" clip-rule="evenodd" d="M48.9583 14.1927C49.4791 14.4531 49.8698 14.5834 50.3906 14.8438C50.651 14.974 50.9114 15.2344 51.0416 15.4948C51.1719 16.0156 51.3021 16.4063 51.5625 16.9271C51.6927 17.1875 51.5625 17.1875 51.3021 17.0573C50.7812 16.7969 50.3906 16.6667 49.8698 16.4063C49.6094 16.2761 49.3489 16.0156 49.3489 15.7552C49.2187 15.2344 49.0885 14.8438 48.8281 14.3229C48.5677 14.1927 48.6979 14.0625 48.9583 14.1927Z" fill="white"/>
<path fill-rule="evenodd" clip-rule="evenodd" d="M48.8281 7.16149C49.3489 7.42191 49.8698 7.81253 50.2604 8.07295C50.5208 8.20316 50.7812 8.59378 50.9114 8.8542C51.0416 9.37503 51.1719 9.76566 51.4323 10.2865C51.5625 10.5469 51.4323 10.5469 51.1718 10.4167C50.651 10.0261 50.1302 9.76566 49.7396 9.50524C49.4791 9.37503 49.2187 8.98441 49.0885 8.8542C48.9583 8.33337 48.8281 7.94274 48.5677 7.42191C48.4375 7.03128 48.5677 7.03128 48.8281 7.16149Z" fill="white"/>
<path fill-rule="evenodd" clip-rule="evenodd" d="M51.8229 9.11459C52.3437 9.50521 52.8645 10.026 53.3854 10.4167C53.6458 10.6771 53.9062 11.0677 54.0364 11.1979C54.1666 11.5885 54.2968 12.1094 54.5573 12.6302C54.6875 12.8906 54.427 12.8906 54.1666 12.6302C53.6458 12.2396 53.125 11.7188 52.6041 11.3281C52.3437 11.0677 52.0833 10.8073 51.9531 10.5469C51.8229 10.026 51.6927 9.63542 51.4323 9.11459C51.4323 8.98438 51.5625 8.85417 51.8229 9.11459Z" fill="white"/>
<path fill-rule="evenodd" clip-rule="evenodd" d="M55.0781 11.9792C55.7292 12.6302 56.3802 13.4115 57.1615 14.4532C57.5521 14.974 60.8073 24.7396 60.8073 24.7396C60.8073 24.7396 58.0729 16.9271 57.8125 16.5365C57.1615 15.625 56.3802 14.8438 55.8594 14.1927C55.599 13.9323 55.3385 13.5417 55.2083 13.2813C55.0781 12.8907 54.9479 12.3698 54.8177 11.9792C54.5573 11.5886 54.8177 11.7188 55.0781 11.9792Z" fill="white"/>
<path fill-rule="evenodd" clip-rule="evenodd" d="M52.7344 11.849C53.2552 12.2396 53.776 12.6302 54.2969 13.1511C54.5573 13.4115 54.8177 13.8021 54.9479 13.9323C55.0781 14.4532 55.2083 14.8438 55.4687 15.3646C55.599 15.625 55.3385 15.625 55.0781 15.3646C54.5573 14.974 54.0365 14.4532 53.5156 14.0625C53.2552 13.9323 52.9948 13.5417 52.8646 13.2813C52.7344 12.7605 52.6042 12.3698 52.3438 11.849C52.3438 11.7188 52.474 11.7188 52.7344 11.849Z" fill="white"/>
<path fill-rule="evenodd" clip-rule="evenodd" d="M55.9896 14.7136C56.6406 15.3646 57.2917 16.1459 57.9427 17.0573C58.3333 17.448 60.8073 24.7396 60.8073 24.7396C60.8073 24.7396 58.9844 19.4011 58.5938 19.0105C57.9427 18.2292 57.2917 17.448 56.6406 16.9271C56.3802 16.6667 56.1198 16.2761 55.9896 16.0157C55.8594 15.4948 55.7292 15.1042 55.599 14.7136C55.4688 14.323 55.7292 14.4532 55.9896 14.7136Z" fill="white"/>
<path fill-rule="evenodd" clip-rule="evenodd" d="M50.7813 12.7604C51.3021 13.0208 51.6927 13.4115 52.2135 13.6719C52.474 13.8021 52.7344 14.1927 52.8646 14.4531C52.9948 14.974 53.125 15.3646 53.3854 15.8854C53.5156 16.1458 53.3854 16.1458 53.125 16.0156C52.6042 15.7552 52.0833 15.3646 51.6927 15.1042C51.4323 14.974 51.1719 14.7136 51.1719 14.4531C51.0417 13.9323 50.9115 13.5417 50.651 13.0208C50.3906 12.7604 50.5208 12.6302 50.7813 12.7604Z" fill="white"/>
<path fill-rule="evenodd" clip-rule="evenodd" d="M53.6458 14.7136C54.1666 15.1042 54.6875 15.4949 55.2083 16.0157C55.4687 16.2761 55.7291 16.6667 55.8594 16.7969C55.9896 17.3178 56.1198 17.7084 56.3802 18.2292C56.5104 18.4896 56.25 18.4896 55.9896 18.2292C55.4687 17.8386 54.9479 17.448 54.4271 17.0574C54.1666 16.9271 53.9062 16.5365 53.776 16.2761C53.6458 15.7553 53.5156 15.3646 53.2552 14.8438C53.2552 14.5834 53.3854 14.4532 53.6458 14.7136Z" fill="white"/>
<path fill-rule="evenodd" clip-rule="evenodd" d="M56.901 17.448C57.552 17.9688 58.2031 18.75 58.8541 19.5313C59.2447 19.9219 60.9375 24.7396 60.9375 24.7396C60.9375 24.7396 59.8958 22.0052 59.5052 21.6146C58.8541 20.8334 58.2031 20.1823 57.6822 19.6615C57.4218 19.4011 57.1614 19.0105 57.0312 18.75C56.901 18.3594 56.7708 17.8386 56.6406 17.448C56.3802 17.0573 56.6406 17.1875 56.901 17.448Z" fill="white"/>
<path fill-rule="evenodd" clip-rule="evenodd" d="M51.6927 15.6251C52.2135 15.8855 52.6041 16.2761 53.125 16.5365C53.3854 16.6667 53.6458 17.0573 53.776 17.3178C53.9062 17.8386 54.0364 18.2292 54.2969 18.7501C54.4271 19.0105 54.2969 19.0105 54.0364 18.8803C53.5156 18.6198 52.9948 18.2292 52.6042 17.9688C52.3437 17.8386 52.0833 17.5782 52.0833 17.3178C51.9531 16.7969 51.8229 16.4063 51.5625 15.8855C51.3021 15.6251 51.4323 15.4948 51.6927 15.6251Z" fill="white"/>
<path fill-rule="evenodd" clip-rule="evenodd" d="M54.6875 17.5782C55.2083 17.9688 55.7291 18.3595 56.25 18.7501C56.5104 19.0105 56.7708 19.4011 56.901 19.5313C57.0312 20.0522 57.1614 20.4428 57.4218 20.9636C57.552 21.224 57.2916 21.224 57.0312 20.9636C56.5104 20.573 55.9895 20.1824 55.4687 19.7918C55.2083 19.6615 54.9479 19.2709 54.8177 19.0105C54.6875 18.4897 54.5573 18.099 54.2968 17.5782C54.1666 17.448 54.427 17.3178 54.6875 17.5782Z" fill="white"/>
<path fill-rule="evenodd" clip-rule="evenodd" d="M57.8125 20.0521C58.4635 20.573 58.9843 21.224 59.6354 22.0052C59.8958 22.3959 60.8073 24.6094 60.8073 24.6094C60.8073 24.6094 60.5468 24.349 60.2864 23.9584C59.6354 23.3073 59.1146 22.6563 58.4635 22.1355C58.2031 21.875 57.9427 21.4844 57.8125 21.3542C57.6823 20.9636 57.552 20.4427 57.4218 20.0521C57.2916 19.7917 57.5521 19.7917 57.8125 20.0521Z" fill="white"/>
<path fill-rule="evenodd" clip-rule="evenodd" d="M54.2969 54.0365C54.6875 53.6458 55.0781 53.3854 55.4687 52.9948C55.5989 52.8646 55.5989 52.6042 55.4687 52.474C55.0781 52.0833 54.8177 51.6927 54.4271 51.4323C54.2969 51.3021 54.1667 51.3021 53.9062 51.4323C53.5156 51.8229 53.125 52.0833 52.7344 52.3438C52.6041 52.474 52.6041 52.6042 52.7344 52.7344C53.125 53.125 53.3854 53.5156 53.776 53.9063C54.0364 54.1667 54.1666 54.1667 54.2969 54.0365ZM50.7812 46.0938C51.1719 45.7031 51.5625 45.4427 51.9531 45.0521C52.0833 44.9219 52.0833 44.6615 51.9531 44.5313C51.6927 44.1406 51.3021 43.8802 51.0416 43.4896C50.9114 43.3594 50.7812 43.3594 50.651 43.4896C50.2604 43.75 49.8698 44.1406 49.4791 44.401C49.3489 44.5312 49.3489 44.6615 49.4791 44.7917C49.8698 45.1823 50.1302 45.5729 50.5208 45.8333C50.5208 46.224 50.651 46.224 50.7812 46.0938ZM52.8646 44.1406C53.2552 43.75 53.5156 43.3594 53.9062 43.099C54.0364 42.9687 54.0364 42.7083 53.9062 42.5781C53.6458 42.1875 53.2552 41.9271 52.9948 41.5365C52.8646 41.4062 52.7344 41.4062 52.6042 41.5365C52.2135 41.9271 51.9531 42.1875 51.5625 42.5781C51.4323 42.7083 51.4323 42.8385 51.5625 42.9687C51.8229 43.3594 52.2135 43.6198 52.4739 44.0104C52.6041 44.2708 52.7344 44.2708 52.8646 44.1406ZM54.8177 42.0573C55.2083 41.6667 55.4687 41.276 55.7291 40.8854C55.8594 40.7552 55.8594 40.4948 55.7291 40.3646C55.4687 40.1042 55.2083 39.7135 54.8177 39.4531C54.6875 39.3229 54.5573 39.3229 54.4271 39.4531C54.0364 39.8437 53.776 40.2344 53.3854 40.625C53.2552 40.7552 53.2552 41.0156 53.3854 41.1458C53.6458 41.5365 54.0364 41.7969 54.2969 42.1875C54.5573 42.3177 54.6875 42.1875 54.8177 42.0573ZM56.6406 39.8437C56.901 39.4531 57.1614 39.0625 57.5521 38.5417C57.6823 38.4115 57.6823 38.151 57.5521 38.0208C57.2917 37.7604 57.0312 37.5 56.7708 37.1094C56.6406 36.9792 56.5104 36.9792 56.3802 37.2396C56.1198 37.6302 55.7291 38.0208 55.4687 38.4115C55.3385 38.5417 55.3385 38.8021 55.4687 38.9323C55.7291 39.1927 55.9896 39.5833 56.3802 39.8437C56.25 40.1042 56.5104 40.1042 56.6406 39.8437ZM58.2031 37.5C58.4635 37.1094 58.7239 36.5885 58.9844 36.0677C59.1146 35.9375 59.1146 35.6771 58.9844 35.5469C58.7239 35.2865 58.4635 35.026 58.3333 34.7656C58.2031 34.6354 58.0729 34.7656 57.9427 34.8958C57.6823 35.2865 57.4219 35.8073 57.0312 36.1979C56.901 36.3281 56.901 36.5885 57.0312 36.7188C57.2916 36.9792 57.5521 37.2396 57.8125 37.6302C57.9427 37.7604 58.0729 37.6302 58.2031 37.5ZM59.6354 34.8958C59.8958 34.375 60.026 33.8542 60.2864 33.3333C60.4166 33.2031 60.2864 32.9427 60.2864 32.8125C60.026 32.5521 59.8958 32.4219 59.6354 32.1615C59.5052 32.0313 59.5052 32.1615 59.375 32.2917C59.1146 32.8125 58.8541 33.2031 58.5937 33.724C58.4635 33.8542 58.4635 34.1146 58.5937 34.2448C58.8541 34.5052 59.1146 34.7656 59.2448 35.026C59.375 35.1562 59.5052 35.026 59.6354 34.8958ZM60.6771 31.901C60.8073 31.3802 60.9375 30.7292 61.0677 30.0781C61.0677 29.8177 61.0677 29.5573 61.0677 29.5573C60.9375 29.4271 60.8073 29.2969 60.6771 29.1667C60.6771 29.1667 60.5469 29.2969 60.5469 29.4271C60.4166 29.9479 60.1562 30.4687 60.026 30.9896C59.8958 31.1198 59.8958 31.3802 60.026 31.5104C60.1562 31.7708 60.4166 31.901 60.5469 32.1615C60.5469 32.1615 60.6771 32.1615 60.6771 31.901ZM54.6875 46.0938C55.0781 45.7031 55.3385 45.3125 55.7291 44.9219C55.8594 44.7917 55.8594 44.5312 55.7291 44.401C55.4687 44.0104 55.0781 43.75 54.8177 43.3594C54.6875 43.2292 54.5573 43.2292 54.4271 43.3594C54.0364 43.75 53.776 44.1406 53.3854 44.401C53.2552 44.5312 53.2552 44.7917 53.3854 44.9219C53.6458 45.3125 54.0364 45.5729 54.2969 45.9635C54.4271 46.224 54.5573 46.224 54.6875 46.0938ZM56.5104 44.0104C56.7708 43.6198 57.1614 43.2292 57.4219 42.8385C57.5521 42.7083 57.5521 42.4479 57.4219 42.3177C57.1614 42.0573 56.7708 41.6667 56.5104 41.4062C56.3802 41.276 56.25 41.276 56.1198 41.4062C55.8594 41.7969 55.4687 42.1875 55.2083 42.5781C55.0781 42.7083 55.0781 42.9687 55.2083 43.099C55.4687 43.4896 55.8594 43.75 56.1198 44.1406C56.25 44.1406 56.3802 44.1406 56.5104 44.0104ZM58.2031 41.6667C58.4635 41.276 58.7239 40.7552 58.9844 40.3646C59.1146 40.2344 59.1146 39.974 58.9844 39.8437C58.7239 39.5833 58.4635 39.3229 58.2031 38.9323C58.0729 38.8021 57.9427 38.9323 57.8125 39.0625C57.5521 39.4531 57.2917 39.974 56.901 40.3646C56.7708 40.4948 56.7708 40.7552 56.901 40.8854C57.1614 41.1458 57.4219 41.5365 57.8125 41.7969C57.9427 41.7969 58.0729 41.7969 58.2031 41.6667ZM59.6354 39.0625C59.8958 38.5417 60.1562 38.151 60.2864 37.6302C60.4166 37.5 60.4166 37.2396 60.2864 37.1094C60.026 36.849 59.7656 36.5885 59.6354 36.3281C59.5052 36.1979 59.375 36.3281 59.375 36.4583C59.1146 36.9792 58.8541 37.3698 58.5937 37.8906C58.4635 38.0208 58.4635 38.2812 58.5937 38.4115C58.8541 38.6719 59.1146 38.9323 59.375 39.3229C59.375 39.3229 59.5052 39.1927 59.6354 39.0625ZM60.8073 36.1979C60.9375 35.6771 61.1979 35.1562 61.3281 34.5052C61.3281 34.2448 61.3281 34.1146 61.3281 33.9844C61.0677 33.724 60.9375 33.5937 60.6771 33.3333C60.5469 33.2031 60.5469 33.3333 60.4167 33.5937C60.2864 34.1146 60.026 34.6354 59.7656 35.1562C59.6354 35.2865 59.6354 35.5469 59.7656 35.6771C60.026 35.9375 60.2864 36.1979 60.4167 36.4583C60.6771 36.4583 60.8073 36.4583 60.8073 36.1979ZM61.7187 32.9427C61.8489 32.2917 61.8489 31.6406 61.8489 30.9896C61.8489 30.7292 61.8489 30.4687 61.7187 30.4687C61.5885 30.3385 61.4583 30.2083 61.3281 30.0781C61.3281 30.0781 61.1979 30.2083 61.1979 30.4687C61.0677 31.1198 60.9375 31.7708 60.8073 32.2917C60.8073 32.5521 60.8073 32.6823 60.8073 32.8125C60.9375 33.0729 61.1979 33.2031 61.3281 33.4635C61.5885 33.3333 61.5885 33.2031 61.7187 32.9427ZM54.5573 50.1302C54.9479 49.7396 55.3385 49.4792 55.5989 49.0885C55.7291 48.9583 55.7291 48.6979 55.5989 48.5677C55.3385 48.1771 54.9479 47.9167 54.6875 47.526C54.5573 47.3958 54.4271 47.3958 54.2969 47.526C53.9062 47.9167 53.5156 48.1771 53.2552 48.5677C53.125 48.6979 53.125 48.8281 53.2552 48.9583C53.6458 49.349 53.9062 49.7396 54.2969 50C54.1666 50.1302 54.4271 50.2604 54.5573 50.1302ZM56.5104 48.0469C56.7708 47.6563 57.1614 47.2656 57.4219 46.875C57.5521 46.7448 57.5521 46.4844 57.4219 46.3542C57.1614 45.9635 56.7708 45.7031 56.5104 45.3125C56.3802 45.1823 56.25 45.1823 56.1198 45.3125C55.7291 45.7031 55.4687 46.0938 55.0781 46.4844C54.9479 46.6146 54.9479 46.875 55.0781 47.0052C55.3385 47.3958 55.7291 47.6563 55.9896 48.0469C56.1198 48.1771 56.3802 48.1771 56.5104 48.0469ZM58.2031 45.8333C58.4635 45.4427 58.8542 45.0521 59.1146 44.5313C59.2448 44.401 59.2448 44.1406 59.1146 44.0104C58.8542 43.75 58.5937 43.3594 58.2031 43.099C58.0729 42.9687 57.9427 42.9688 57.8125 43.2292C57.5521 43.6198 57.1614 44.0104 56.901 44.5313C56.7708 44.6615 56.7708 44.9219 56.901 45.0521C57.1614 45.4427 57.5521 45.7031 57.8125 46.0938C57.9427 45.9635 58.0729 45.9635 58.2031 45.8333ZM59.7656 43.3594C60.026 42.8385 60.2864 42.4479 60.5469 41.9271C60.6771 41.7969 60.6771 41.5365 60.5469 41.4062C60.2864 41.1458 60.026 40.8854 59.7656 40.4948C59.6354 40.3646 59.5052 40.4948 59.375 40.625C59.1146 41.1458 58.8541 41.5365 58.5937 41.9271C58.4635 42.0573 58.4635 42.3177 58.5937 42.4479C58.8541 42.7083 59.1146 43.099 59.5052 43.3594C59.5052 43.4896 59.7656 43.4896 59.7656 43.3594ZM61.0677 40.625C61.3281 40.1042 61.4583 39.5833 61.5885 39.0625C61.5885 38.8021 61.5885 38.6719 61.5885 38.5417C61.3281 38.2812 61.0677 38.0208 60.9375 37.7604C60.8073 37.6302 60.6771 37.7604 60.6771 37.8906C60.4166 38.4115 60.2864 38.9323 60.026 39.4531C59.8958 39.5833 59.8958 39.8438 60.026 39.974C60.2864 40.2344 60.5469 40.4948 60.8073 40.7552C60.9375 40.8854 61.0677 40.7552 61.0677 40.625ZM62.1094 37.5C62.2396 36.849 62.3698 36.3281 62.5 35.6771C62.5 35.4167 62.5 35.1562 62.3698 35.1562C62.2396 34.8958 61.9792 34.7656 61.7187 34.5052C61.5885 34.375 61.5885 34.5052 61.4583 34.7656C61.3281 35.4167 61.1979 35.9375 60.9375 36.4583C60.9375 36.7187 60.9375 36.849 60.9375 36.9792C61.1979 37.2396 61.4583 37.5 61.5885 37.7604C61.9791 37.8906 62.1094 37.7604 62.1094 37.5ZM62.6302 33.9844C62.6302 33.3333 62.6302 32.5521 62.6302 31.7708C62.6302 31.5104 62.5 31.25 62.5 31.1198C62.3698 30.9896 62.2396 30.8594 62.1094 30.7292C62.1094 30.7292 61.9791 30.8594 61.9791 31.1198C61.9791 31.901 61.8489 32.5521 61.8489 33.2031C61.8489 33.4635 61.8489 33.724 61.9791 33.724C62.1094 33.9844 62.3698 34.1146 62.5 34.375C62.6302 34.375 62.6302 34.2448 62.6302 33.9844ZM56.3802 52.0833C56.7708 51.6927 57.0312 51.3021 57.4219 50.9115C57.5521 50.7812 57.5521 50.5208 57.4219 50.3906C57.1614 50 56.7708 49.7396 56.5104 49.349C56.3802 49.2188 56.25 49.2188 56.1198 49.349C55.7291 49.7396 55.4687 50.1302 55.0781 50.3906C54.9479 50.5208 54.9479 50.7812 55.0781 50.9115C55.4687 51.3021 55.7291 51.6927 56.1198 51.9531C56.1198 52.2135 56.25 52.2135 56.3802 52.0833ZM58.3333 50C58.5937 49.6094 58.9844 49.2187 59.2448 48.8281C59.375 48.6979 59.375 48.4375 59.2448 48.3073C58.9844 47.9167 58.5937 47.6562 58.3333 47.2656C58.2031 47.1354 58.0729 47.1354 57.9427 47.2656C57.6823 47.6562 57.2916 48.0469 57.0312 48.4375C56.901 48.5677 56.901 48.8281 57.0312 48.9583C57.2916 49.349 57.6823 49.6094 57.9427 50C57.9427 50.1302 58.2031 50.1302 58.3333 50ZM61.4583 45.0521C61.7187 44.5312 61.8489 44.0104 62.1094 43.4896C62.2396 43.3594 62.1094 43.099 62.1094 42.9687C61.8489 42.7083 61.5885 42.4479 61.3281 42.0573C61.1979 41.9271 61.0677 42.0573 60.9375 42.1875C60.6771 42.7083 60.4166 43.099 60.2864 43.6198C60.1562 43.75 60.1562 44.0104 60.2864 44.1406C60.5469 44.401 60.8073 44.7917 61.1979 45.0521C61.1979 45.3125 61.3281 45.1823 61.4583 45.0521ZM62.5 42.1875C62.6302 41.6667 62.8906 41.1458 63.0208 40.4948C63.0208 40.2344 63.0208 40.1042 63.0208 39.974C62.7604 39.7135 62.5 39.4531 62.3698 39.1927C62.2396 39.0625 62.1094 39.1927 62.1094 39.4531C61.9792 39.974 61.7187 40.4948 61.5885 41.0156C61.4583 41.1458 61.5885 41.4062 61.5885 41.5365C61.8489 41.7969 62.1094 42.0573 62.3698 42.4479C62.3698 42.4479 62.5 42.3177 62.5 42.1875ZM63.4114 38.9323C63.5417 38.2812 63.5417 37.6302 63.6719 36.9792C63.6719 36.7187 63.6719 36.4583 63.5416 36.3281C63.2812 36.0677 63.151 35.9375 62.8906 35.6771C62.7604 35.5469 62.7604 35.6771 62.7604 35.9375C62.6302 36.5885 62.5 37.2396 62.3698 37.7604C62.3698 38.0208 62.3698 38.2812 62.5 38.2812C62.7604 38.5417 63.0208 38.8021 63.151 39.0625C63.2812 39.3229 63.2812 39.1927 63.4114 38.9323ZM63.6719 35.1562C63.6719 34.375 63.5417 33.5937 63.4114 32.6823C63.4114 32.2917 63.2812 32.0312 63.2812 32.0312C63.151 31.901 63.0208 31.7708 62.8906 31.6406C62.8906 31.6406 62.8906 31.7708 62.8906 32.0312C63.0208 32.8125 63.0208 33.5937 63.0208 34.375C63.0208 34.6354 63.0208 34.8958 63.151 35.026C63.2812 35.2865 63.5417 35.4167 63.6719 35.6771C63.6719 35.5469 63.6719 35.4167 63.6719 35.1562ZM62.8906 30.0781C62.5 29.0365 62.1094 27.7344 61.3281 26.1719C61.0677 25.5208 60.8073 25.1302 60.8073 25.1302C60.8073 25.1302 60.8073 25.3906 60.8073 25.651C60.8073 26.4323 60.8073 27.0833 60.6771 27.7344C60.6771 27.9948 60.6771 28.125 60.6771 28.2552C60.8073 28.3854 60.9375 28.5156 61.0677 28.6458C61.0677 28.6458 61.1979 28.5156 61.1979 28.2552C61.1979 27.474 61.0677 26.6927 60.9375 25.7812C60.8073 25.3906 60.8073 25.1302 60.8073 25.1302C60.8073 25.1302 60.9375 25.3906 60.9375 25.7812C61.1979 26.6927 61.1979 27.6042 61.3281 28.3854C61.3281 28.6458 61.3281 28.9063 61.4583 28.9063C61.5885 29.0365 61.7187 29.1667 61.8489 29.2969C61.8489 29.2969 61.8489 29.1667 61.8489 28.776C61.7187 27.8646 61.5885 26.9531 61.1979 25.7812C61.0677 25.3906 60.9375 25 60.9375 25C60.9375 25 61.0677 25.3906 61.1979 25.7812C61.5885 26.9531 61.8489 27.9948 61.9791 28.776C61.9791 29.0365 62.1094 29.2969 62.1094 29.4271C62.2396 29.5573 62.3698 29.6875 62.5 29.8177C62.5 29.8177 62.5 29.6875 62.5 29.2969C62.2396 28.2552 61.9792 27.2135 61.4583 25.9115C61.1979 25.3906 61.0677 25 61.0677 25C61.0677 25 61.3281 25.3906 61.4583 25.9115C61.9792 27.2135 62.3698 28.3854 62.6302 29.4271C62.7604 29.8177 62.7604 30.0781 62.8906 30.0781C63.0208 30.2083 63.151 30.3385 63.2812 30.4687C63.0208 30.7292 63.0208 30.4687 62.8906 30.0781ZM50.5208 49.8698C50.9114 49.6094 51.3021 49.2187 51.6927 48.9583C51.8229 48.8281 51.8229 48.6979 51.6927 48.5677C51.3021 48.1771 51.0417 47.7865 50.651 47.526C50.5208 47.3958 50.2604 47.3958 50.1302 47.526C49.7396 47.7865 49.3489 48.1771 48.9583 48.4375C48.8281 48.5677 48.8281 48.6979 48.9583 48.8281C49.3489 49.2187 49.6094 49.6094 50 50C50.1302 49.8698 50.3906 50 50.5208 49.8698Z" fill="white"/>
<path fill-rule="evenodd" clip-rule="evenodd" d="M74.0885 30.9896L87.8906 17.3177H76.1719L68.2292 25.1302L60.2865 17.3177H58.5938C58.724 17.7084 58.9844 18.2292 59.2448 18.75C60.026 20.8334 60.9375 23.8282 61.849 27.474C64.4531 30.4688 65.625 34.5052 65.3646 39.5834L68.099 36.849L76.5625 45.3125H88.2812L75.1302 32.0313L74.0885 30.9896Z" fill="white"/>
<path fill-rule="evenodd" clip-rule="evenodd" d="M248.698 45.1823H237.24L230.99 37.7605H217.708V45.1823H209.115V30.9896H233.333C234.635 30.9896 235.807 30.7292 236.719 30.2084C237.63 29.6875 238.151 28.9063 238.151 27.8646C238.151 26.823 237.76 25.9115 236.849 25.3907C236.068 24.8698 234.896 24.6094 233.333 24.6094H209.115L214.714 17.3177H232.552C234.115 17.3177 235.807 17.448 237.5 17.7084C239.193 17.9688 240.755 18.4896 242.057 19.2709C243.49 20.0521 244.531 21.0938 245.443 22.2657C246.354 23.4375 246.745 25.1302 246.745 27.2136C246.745 28.2552 246.615 29.2969 246.224 30.3386C245.833 31.25 245.443 32.1615 244.792 32.9427C244.141 33.724 243.359 34.375 242.448 34.8959C241.536 35.4167 240.495 35.8073 239.453 36.0677C239.974 36.4584 240.495 36.849 241.016 37.5C241.536 38.0209 242.318 38.8021 243.359 39.8438L248.698 45.1823ZM173.828 45.1823L179.036 38.0209H186.068C186.849 38.0209 187.76 38.0209 188.672 38.0209C189.583 38.0209 190.365 38.0209 191.016 38.1511C190.625 37.6302 190.234 36.9792 189.714 36.198C189.193 35.4167 188.672 34.7657 188.281 34.1146L183.333 26.6927L170.312 45.1823H160.156L177.995 20.0521C178.516 19.2709 179.297 18.4896 180.208 17.8386C181.12 17.1875 182.161 16.9271 183.594 16.9271C184.896 16.9271 185.937 17.1875 186.849 17.8386C187.76 18.4896 188.411 19.1407 189.062 20.0521L206.38 45.1823H173.828ZM159.245 38.1511L153.646 45.3125H129.036V17.448H137.63V38.1511H159.245ZM126.172 38.1511L120.703 45.3125H93.8802V17.448H126.042L120.443 24.7396H102.474V28.125H124.479L119.531 34.5052H102.474V38.2813H126.172V38.1511ZM15.2344 45.1823L20.4427 38.0209H27.3437C28.125 38.0209 29.0364 38.0209 29.9479 38.0209C30.8594 38.0209 31.6406 38.0209 32.2916 38.1511C31.901 37.6302 31.5104 36.9792 30.9896 36.198C30.4687 35.4167 29.9479 34.7657 29.5573 34.1146L24.6094 26.6927L11.5885 45.1823H1.30206L19.1406 20.0521C19.6614 19.2709 20.4427 18.4896 21.3541 17.8386C22.2656 17.1875 23.3073 16.9271 24.7396 16.9271C26.0416 16.9271 27.0833 17.1875 27.9948 17.8386C28.9062 18.4896 29.5573 19.1407 30.2083 20.0521L47.526 45.1823H15.2344Z" fill="white"/>
</g>
<defs>
<clipPath id="clip0_130_19">
<rect width="250" height="54.6875" fill="white"/>
</clipPath>
</defs>
</svg>
