<svg width="31" height="30" viewBox="0 0 31 30" fill="none" xmlns="http://www.w3.org/2000/svg">
<g clip-path="url(#clip0_129_12)">
<path d="M30.135 8.13372C29.9652 7.52776 29.6343 6.97915 29.1775 6.54622C28.7079 6.09998 28.1323 5.78077 27.505 5.61872C25.1575 4.99997 15.7525 4.99997 15.7525 4.99997C11.8317 4.95536 7.91181 5.15157 4.01502 5.58747C3.38776 5.76149 2.81322 6.08783 2.34252 6.53747C1.88002 6.98247 1.54502 7.53122 1.37002 8.13247C0.949635 10.3972 0.745383 12.6967 0.760018 15C0.745018 17.3012 0.948768 19.6 1.37002 21.8675C1.54127 22.4662 1.87502 23.0125 2.33877 23.4537C2.80252 23.895 3.38002 24.2137 4.01502 24.3825C6.39377 25 15.7525 25 15.7525 25C19.6783 25.0446 23.6032 24.8484 27.505 24.4125C28.1323 24.2504 28.7079 23.9312 29.1775 23.485C29.64 23.0437 29.9688 22.495 30.1338 21.8975C30.5651 19.6337 30.7749 17.3332 30.76 15.0287C30.7925 12.7145 30.583 10.4032 30.135 8.13247V8.13372ZM12.7625 19.28V10.7212L20.5875 15.0012L12.7625 19.28Z" fill="white"/>
</g>
<defs>
<clipPath id="clip0_129_12">
<rect width="30" height="30" fill="white" transform="translate(0.76001)"/>
</clipPath>
</defs>
</svg>
