<svg width="31" height="30" viewBox="0 0 31 30" fill="none" xmlns="http://www.w3.org/2000/svg">
<path d="M12.7125 3.75C11.1355 3.74953 9.58392 4.14686 8.20126 4.90523C6.8186 5.66359 5.64959 6.75849 4.80241 8.08858C3.95522 9.41867 3.45725 10.941 3.35458 12.5146C3.2519 14.0882 3.54785 15.6624 4.21501 17.0913L3.31001 20.6438C3.2435 20.9047 3.24555 21.1784 3.31598 21.4383C3.3864 21.6983 3.52281 21.9356 3.71197 22.1272C3.90113 22.3189 4.13661 22.4584 4.39558 22.5323C4.65455 22.6061 4.92821 22.6118 5.19001 22.5488C6.12751 22.3238 7.56876 21.9775 8.85251 21.6713C10.1272 22.246 11.5142 22.5284 12.9122 22.4977C14.3101 22.467 15.6834 22.1241 16.9316 21.4939C18.1798 20.8637 19.2712 19.9623 20.1259 18.8557C20.9806 17.7491 21.577 16.4653 21.8713 15.0984C22.1657 13.7314 22.1505 12.316 21.8269 10.9557C21.5034 9.59539 20.8797 8.32468 20.0014 7.23665C19.1232 6.14861 18.0127 5.2708 16.7513 4.66751C15.4899 4.06422 14.1095 3.75073 12.7113 3.75H12.7125ZM5.21251 13.125C5.21301 11.4941 5.74508 9.90785 6.72811 8.60654C7.71115 7.30523 9.09156 6.35981 10.6602 5.91354C12.2288 5.46726 13.9002 5.54445 15.421 6.1334C16.9418 6.72236 18.2292 7.79099 19.0881 9.17737C19.947 10.5637 20.3306 12.1923 20.1808 13.8163C20.031 15.4403 19.3559 16.9712 18.2578 18.177C17.1598 19.3828 15.6986 20.1979 14.0957 20.4986C12.4928 20.7994 10.8355 20.5695 9.37501 19.8438L9.07001 19.6925L8.74001 19.7713C7.58626 20.0463 6.25251 20.365 5.25501 20.605L6.11751 17.22L6.20501 16.875L6.04251 16.5588C5.49506 15.4971 5.21042 14.3195 5.21251 13.125V13.125ZM18.9625 26.25C16.5 26.25 14.26 25.3013 12.5875 23.75H12.7125C13.61 23.75 14.4813 23.6388 15.3125 23.4288C16.3938 24.0313 17.6375 24.375 18.9625 24.375C20.1625 24.375 21.295 24.0938 22.3 23.5938L22.6038 23.4425L22.9338 23.5213C24.0863 23.7963 25.3913 24.0775 26.3588 24.2838C26.14 23.345 25.8413 22.0888 25.5563 20.97L25.4688 20.625L25.6313 20.3088C26.1791 19.2472 26.4642 18.0696 26.4625 16.875C26.4632 15.6211 26.1491 14.387 25.5492 13.2859C24.9493 12.1848 24.0827 11.2519 23.0288 10.5725C22.8084 9.67964 22.4722 8.81944 22.0288 8.01375C23.2697 8.44344 24.4065 9.12894 25.3657 10.0259C26.3249 10.9228 27.085 12.0112 27.5969 13.2205C28.1088 14.4298 28.361 15.7332 28.3372 17.0462C28.3134 18.3592 28.0141 19.6525 27.4588 20.8425C27.775 22.1025 28.095 23.4675 28.2975 24.3463C28.3569 24.6008 28.3511 24.8663 28.2807 25.118C28.2104 25.3698 28.0776 25.5998 27.8949 25.7867C27.7121 25.9736 27.4851 26.1113 27.235 26.1873C26.9849 26.2633 26.7196 26.2749 26.4638 26.2213C25.2471 25.9682 24.0332 25.7016 22.8225 25.4213C21.6095 25.9692 20.2935 26.2518 18.9625 26.25V26.25Z" fill="white"/>
</svg>
