<svg xmlns="http://www.w3.org/2000/svg" xmlns:xlink="http://www.w3.org/1999/xlink" id="Layer_1" x="0px" y="0px" viewBox="0 0 417.9 395.6" style="enable-background:new 0 0 417.9 395.6;" xml:space="preserve" width="417.9"  height="395.6" >
<style type="text/css">
	.st0{fill:none;stroke:#FFFFFF;stroke-width:2;stroke-miterlimit:10;}
</style>
<path class="st0" d="M268,256.6h-1v-0.9c-0.2-8.3-0.8-16.6-2-24.8v-0.1c-0.8-5.5-1.8-10.9-3.1-16.3l-0.2-0.9l50.1-11.5l-0.1-0.6  C298.5,145.7,266.2,95.9,220.8,61C177,27.4,123,9.1,67.9,9.1c-2.1,0-4.2,0-6.3,0.1H61l1,32.3c-5.8,0.1-11.7,0.5-17.5,1  C29.4,44,14.5,47,0,51.4v1.2c14.5-4.4,29.5-7.4,44.6-8.9c5.8-0.6,11.5-0.9,17.3-1l0.5,16.8l0.2,0.9h-1c-7.3,0.2-14.7,0.9-22.1,1.9  c-13.5,2-26.8,5.4-39.5,10v1.2c12.8-4.6,26.1-8,39.7-10c7.3-1,14.6-1.7,21.9-1.9l2.1-0.1l-0.1-2.1l-0.5-16.7c-0.4,0-0.7,0-1.1,0v0  c0.4,0,0.7,0,1.1,0v0c1.3,0,2.5,0,3.8,0c43.7,0,87.1,12.4,124.2,35.9c21.6,13.6,40.6,30.6,56.5,50.5c15.7,19.5,28,41.3,36.7,64.8  l0.1,0c0.1,0.2,0.1,0.4,0.2,0.4l0.5-0.2l0,0.1l-0.5,0.2c-0.1-0.2-0.1-0.4-0.2-0.5l-44.9,15.9l0.8,2.1c7,19.7,10.6,40.3,10.6,61.3  c0,2.2,0,4.3-0.1,6.5c-0.7,19.8-4.5,39.1-11.3,57.4l0.1,0l-0.8,2.1l55.3,20.5l0-0.1l0.5,0.2l0.1-0.4l0.1,0l-0.2,0.5l-0.6-0.2  c-4.8,12.5-10.6,24.5-17.3,35.9h1.3c6.7-11.6,12.5-23.6,17.3-36.1l0.2-0.5l-55.3-20.5l0.4-1l-0.5-0.2l-0.4-0.2l0.3,0.1l0.5,0.2  c6.9-18.5,10.7-37.9,11.4-57.8c0.1-2.2,0.1-4.4,0.1-6.5c0-21.1-3.6-41.8-10.7-61.6l-0.4-1l44.9-15.9l-0.2-0.6  c-8.7-23.8-21.2-45.9-37.1-65.7c-16-19.9-35.2-37-56.8-50.7C154.6,54,111,41.5,67,41.5c-1.3,0-2.5,0-3.8,0l-1-31.2  c1.9,0,3.8-0.1,5.7-0.1c54.9,0,108.6,18.2,152.2,51.7c45.1,34.6,77.1,84,90.4,139.1l-50,11.5l0.5,2.1c1.2,5.3,2.2,10.8,3,16.2  l0.6-0.1l-0.3,0.1H264v0.1v0.1c1.2,8.2,1.9,16.5,2,24.7v2.1h2.1l77.1-1.4c0,0.9,0,1.8,0,2.7c0,41.1-9.3,82.2-27,119.2v0.1l0.5,0.3  l-0.5-0.2c-2.8,5.8-5.8,11.5-9,17.1h1.3c3.1-5.5,6-11,8.7-16.6v-0.1l-0.5-0.3l0.5,0.2c17.8-37.2,27.1-78.5,27.1-119.7  c0-1.1,0-2.2,0-3.3v-0.6L268,256.6z"/>
</svg>