<svg width="32" height="30" viewBox="0 0 32 30" fill="none" xmlns="http://www.w3.org/2000/svg">
<g clip-path="url(#clip0_129_10)">
<path d="M7.1269 30V9.75906H0.399219V30H7.1269ZM3.76393 6.99384C6.10999 6.99384 7.5703 5.43957 7.5703 3.49725C7.52659 1.51113 6.11008 0 3.80845 0C1.50718 0 0.00228882 1.51116 0.00228882 3.49725C0.00228882 5.43966 1.46224 6.99384 3.72001 6.99384H3.76372H3.76393ZM10.8506 30H17.5783V18.6965C17.5783 18.0915 17.622 17.4872 17.7997 17.0548C18.2861 15.8461 19.393 14.5942 21.2515 14.5942C23.686 14.5942 24.6599 16.4504 24.6599 19.1714V29.9999H31.3871V18.3939C31.3871 12.1767 28.0681 9.28386 23.6417 9.28386C20.0123 9.28386 18.4188 11.3125 17.5336 12.6942H17.5785V9.75864H10.8508C10.9391 11.6579 10.8508 29.9996 10.8508 29.9996L10.8506 30Z" fill="white"/>
</g>
<defs>
<clipPath id="clip0_129_10">
<rect width="31.3895" height="30" fill="white"/>
</clipPath>
</defs>
</svg>
