<svg width="28" height="28" viewBox="0 0 28 28" fill="none" xmlns="http://www.w3.org/2000/svg">
<path d="M18.6665 24.5C22.7813 22.6952 25.6653 18.7728 25.6653 14C25.6653 9.22717 22.7813 5.30483 18.6665 3.5V5.83333C21.4513 7.45033 23.332 10.5548 23.332 14C23.332 17.4452 21.4513 20.5497 18.6665 22.1667V24.5Z" fill="white"/>
<path d="M18.6668 8.16664V19.8333C20.096 18.55 21.0002 16.0661 21.0002 14C21.0002 11.9338 20.096 9.44997 18.6668 8.16664ZM4.66683 19.8333H7.81333L16.3335 25.5126V2.4873L7.81333 8.16664H4.66683C3.38 8.16664 2.3335 9.21314 2.3335 10.5V17.5C2.3335 18.7868 3.38 19.8333 4.66683 19.8333Z" fill="white"/>
</svg>
